<svg width="649" height="355" viewBox="0 0 649 355" fill="none" xmlns="http://www.w3.org/2000/svg">
<path d="M102.183 354L262.183 306.5L246.183 277L91.6827 324L102.183 354Z" fill="#B2B2B2" stroke="black"/>
<path d="M365.183 317.5H284.183H266.683C256.683 296.667 236.083 253.3 233.683 246.5C231.283 239.7 254.683 213.667 266.683 201.5L342.183 184.5L407.683 246.5L365.183 317.5Z" fill="#7E7E7E" stroke="black"/>
<path d="M470.183 227L527.683 329L554.183 317.5L502.683 212L470.183 227Z" fill="#40979A" stroke="black"/>
<path d="M393.683 59.5C420.683 114.333 474.683 223.5 474.683 221.5L498.683 213.5L426.183 59.5H393.683Z" fill="#B2B2B2" stroke="black"/>
<path d="M588.861 119L647.933 174L588.861 143.159L466.645 156.009L454.933 125.168L588.861 119Z" fill="#40979A" stroke="black"/>
<path d="M390.183 128L413.683 107L436.683 145L427.183 153L390.183 128Z" fill="#40979A"/>
<path d="M352.183 107L448.183 171.5L409.183 247L340.683 184.5L264.683 201.5L232.183 247L111.183 135L5.18268 107L0.682678 91L80.1827 100L251.683 153L352.183 107Z" fill="#40979A"/>
<path d="M390.183 128L413.683 107L436.683 145L427.183 153L390.183 128Z" stroke="black"/>
<path d="M352.183 107L448.183 171.5L409.183 247L340.683 184.5L264.683 201.5L232.183 247L111.183 135L5.18268 107L0.682678 91L80.1827 100L251.683 153L352.183 107Z" stroke="black"/>
<path d="M250.683 153.5L107.683 108L113.183 102.5L250.683 120L342.183 102.5L350.183 108L250.683 153.5Z" fill="black" stroke="black"/>
<path d="M462.183 118.5L447.183 108L425.183 59.5H403.183L392.683 41.5L397.183 28.5L437.683 41.5L470.183 114L462.183 118.5Z" fill="#40979A" stroke="black"/>
<path d="M381.183 53L403.183 59.5L394.183 28.5L381.183 53Z" fill="#B2B2B2" stroke="black"/>
<ellipse cx="338.183" cy="18" rx="17.5" ry="18" fill="black"/>
<path d="M302.683 213L310.683 226L358.183 220.5L380.183 233L384.683 226L340.683 184.5L319.183 190L302.683 213Z" fill="#B2B2B2" stroke="black"/>
<path d="M348.485 41.3684L338.683 36.3158L356.108 6H370.267H382.247L393.683 16.6105V28.2316L387.693 41.3684L376.257 54H356.108L348.485 41.3684Z" fill="black" stroke="black"/>
<path d="M105.683 143H119.183L220.683 239L198.683 234L184.183 228L105.683 181L98.1827 164L105.683 143Z" fill="#B2B2B2"/>
<path d="M269.183 312.5L234.683 245.5L263.683 204L321.183 189L291.846 228L338.683 222.5H356.183L382.683 239L408.683 265L398.933 269.75L389.183 274.5L356.183 245.5H316.683L281.165 253.5L287.683 274.5L303.683 291.5V304.5L278.683 318.5L269.183 312.5Z" fill="#B2B2B2"/>
<path d="M281.165 253.5L278.683 245.5L291.846 228M281.165 253.5L287.683 274.5L303.683 291.5V304.5L278.683 318.5L269.183 312.5L234.683 245.5L263.683 204L321.183 189L291.846 228M281.165 253.5L316.683 245.5H356.183L389.183 274.5L398.933 269.75L408.683 265L382.683 239L356.183 222.5H338.683L291.846 228M119.183 143H105.683L98.1827 164L105.683 181L184.183 228L198.683 234L220.683 239L119.183 143Z" stroke="black"/>
<ellipse cx="333.683" cy="277" rx="31" ry="30" fill="#B2B2B2"/>
<path d="M423.683 156.5L450.683 173L470.183 156.5L457.683 130.5L423.683 156.5Z" fill="#878787" stroke="black"/>
</svg>
