<svg width="231" height="231" viewBox="0 0 231 231" fill="none" xmlns="http://www.w3.org/2000/svg">
<path d="M115 22L119.699 91.3758L150.59 29.0792L128.382 94.9724L180.761 49.2391L135.028 101.618L200.921 79.4104L138.624 110.301L208 115L138.624 119.699L200.921 150.59L135.028 128.382L180.761 180.761L128.382 135.028L150.59 200.921L119.699 138.624L115 208L110.301 138.624L79.4104 200.921L101.618 135.028L49.2391 180.761L94.9724 128.382L29.0792 150.59L91.3758 119.699L22 115L91.3758 110.301L29.0792 79.4104L94.9724 101.618L49.2391 49.2391L101.618 94.9724L79.4104 29.0792L110.301 91.3758L115 22Z" fill="#5C5C5C"/>
<circle cx="115" cy="115" r="27" fill="#808080"/>
<path d="M115.5 0C179.289 0 231 51.7111 231 115.5C231 179.289 179.289 231 115.5 231C51.7111 231 0 179.289 0 115.5C0 51.7111 51.7111 0 115.5 0ZM115.5 48C78.2208 48 48 78.2208 48 115.5C48 152.779 78.2208 183 115.5 183C152.779 183 183 152.779 183 115.5C183 78.2208 152.779 48 115.5 48Z" fill="black"/>
</svg>
